<mxfile host="app.diagrams.net" modified="2024-07-12T06:12:23.771Z" agent="Mozilla/5.0 (Windows NT 10.0; Win64; x64) AppleWebKit/537.36 (KHTML, like Gecko) Chrome/126.0.0.0 Safari/537.36" version="24.6.5" etag="cGTxuCHbAIk_MlY6ESCH" type="github">
  <diagram name="Trang-1" id="91RiV3sh87X0qNgvDXB-">
    <mxGraphModel>
      <root>
        <mxCell id="0" />
        <mxCell id="1" parent="0" />
      </root>
    </mxGraphModel>
  </diagram>
</mxfile>
